<svg width="15" height="20" viewBox="0 0 15 20" fill="none" xmlns="http://www.w3.org/2000/svg">
<path d="M14.5897 10.4844C14.3164 9.70665 13.3705 7.14219 12.824 6.49053C11.9833 5.50258 10.9112 5.0401 9.35579 5.0401H7.9265C6.64427 5.0401 5.9717 4.26239 5.7824 3.77881C5.31996 2.70682 4.92054 0.60481 4.92054 0.583715C4.83652 0.184295 4.4581 -0.0678721 4.07981 0.0161334C3.68039 0.10015 3.42822 0.478577 3.51223 0.856864C3.49111 0.962141 3.9115 3.12719 4.437 4.3464C4.81529 5.22924 5.76131 6.13318 7.1066 6.40633C7.61112 7.5204 7.6321 9.89572 7.59002 11.0938C6.95938 11.7245 6.37085 12.6703 5.80324 13.8686C5.48799 14.5413 5.02553 17.5681 4.83623 18.8714C4.77318 19.3338 5.0465 19.8172 5.48782 19.9433C5.57184 19.9643 5.656 19.9854 5.74002 19.9854C6.20246 19.9854 6.60188 19.6491 6.66494 19.1866C6.93825 17.2949 7.33766 15.0246 7.48473 14.6673C8.09424 13.343 8.64087 12.6493 9.01916 12.3131C8.74585 13.2589 8.61974 14.4361 8.76696 15.6343C9.01916 17.6102 9.94405 19.4179 9.96519 19.4809C10.1964 19.9434 10.764 20.1325 11.2265 19.9013C11.6889 19.6701 11.8781 19.1025 11.6468 18.64C11.6468 18.6191 10.848 17.0425 10.6168 15.3819C10.4696 14.2888 10.6799 13.0907 10.9741 12.3128C11.3105 11.4091 11.4996 10.4421 11.5206 9.49619C11.5416 8.63432 11.4785 7.7094 11.2894 7.01588C11.4576 7.14198 11.5837 7.26808 11.7098 7.43625C11.962 7.75149 12.6977 9.51728 13.2232 10.9887C13.3283 11.283 13.6015 11.4721 13.8959 11.4721C13.9799 11.4721 14.0641 11.4512 14.1481 11.43C14.5267 11.262 14.7159 10.8626 14.5898 10.4842L14.5897 10.4844Z" fill="#242E42"/>
<path d="M10.9332 2.30742C10.9332 3.41034 10.0392 4.3043 8.93633 4.3043C7.83341 4.3043 6.93945 3.41034 6.93945 2.30742C6.93945 1.20465 7.83341 0.310547 8.93633 0.310547C10.0392 0.310547 10.9332 1.20465 10.9332 2.30742Z" fill="#242E42"/>
<path d="M3.05059 7.35138C2.84032 7.33041 2.65117 7.49859 2.65117 7.7087V12.144C2.39897 12.0599 2.08359 12.0388 1.7893 12.1019C0.9905 12.2701 0.423068 12.9426 0.570134 13.6153C0.696233 14.288 1.47393 14.7294 2.27273 14.5612C2.98738 14.414 3.51288 13.8675 3.51288 13.258L3.51303 8.78069C4.71125 8.78069 4.58502 10.0208 4.33281 10.7776C4.29073 10.8827 4.35378 10.9878 4.43794 11.0298L4.60612 11.1138C4.69014 11.1559 4.79527 11.1347 4.85832 11.0507C6.07749 9.57951 5.17371 7.60358 3.05059 7.35137L3.05059 7.35138Z" fill="#242E42"/>
</svg>
